<svg width="30" height="31" viewBox="0 0 30 31" fill="none" xmlns="http://www.w3.org/2000/svg">
<rect y="0.937012" width="30" height="30" rx="3" fill="#1D0605" fill-opacity="0.15"/>
<path d="M7.57143 10.8758H22.4286C22.7442 10.8758 23 10.5834 23 10.2227V8.59007C23 8.22938 22.7442 7.93701 22.4286 7.93701H7.57143C7.25582 7.93701 7 8.22938 7 8.59007V10.2227C7 10.5834 7.25582 10.8758 7.57143 10.8758ZM7.57143 17.4064H22.4286C22.7442 17.4064 23 17.114 23 16.7533V15.1207C23 14.76 22.7442 14.4676 22.4286 14.4676H7.57143C7.25582 14.4676 7 14.76 7 15.1207V16.7533C7 17.114 7.25582 17.4064 7.57143 17.4064ZM7.57143 23.937H22.4286C22.7442 23.937 23 23.6446 23 23.2839V21.6513C23 21.2906 22.7442 20.9982 22.4286 20.9982H7.57143C7.25582 20.9982 7 21.2906 7 21.6513V23.2839C7 23.6446 7.25582 23.937 7.57143 23.937Z" fill="#1D0605" fill-opacity="0.9"/>
</svg>
