<svg width="265" height="37" viewBox="0 0 265 37" fill="none" xmlns="http://www.w3.org/2000/svg">
<path d="M49.2691 9.95772V13.7801H40.4776V18.7787H47.2109V22.4541H40.4776V27.5555H49.2691V31.3779H35.479V9.95772H49.2691ZM63.0571 21.5867C63.2532 21.9591 63.4394 22.3463 63.6158 22.7481C63.802 23.1499 63.9784 23.5616 64.1451 23.983C64.3117 23.5518 64.4881 23.1352 64.6743 22.7334C64.8605 22.3218 65.0517 21.9248 65.2477 21.5426L70.7461 10.7222C70.8441 10.536 70.9421 10.3939 71.0401 10.2959C71.1479 10.188 71.2655 10.1096 71.3929 10.0606C71.5203 10.0116 71.6625 9.98222 71.8193 9.97242C71.9859 9.96262 72.177 9.95772 72.3926 9.95772H76.1857V31.3779H71.8046V19.058C71.8046 18.4601 71.834 17.8133 71.8928 17.1174L66.218 28.1289C66.0416 28.4719 65.8014 28.7316 65.4976 28.9081C65.2036 29.0845 64.8654 29.1727 64.4832 29.1727H63.8069C63.4247 29.1727 63.0816 29.0845 62.7778 28.9081C62.4838 28.7316 62.2486 28.4719 62.0721 28.1289L56.3679 17.1027C56.4071 17.4457 56.4365 17.7888 56.4561 18.1318C56.4757 18.465 56.4855 18.7738 56.4855 19.058V31.3779H52.1045V9.95772H55.8975C56.1131 9.95772 56.2993 9.96262 56.4561 9.97242C56.6227 9.98222 56.7698 10.0116 56.8972 10.0606C57.0246 10.1096 57.1373 10.188 57.2353 10.2959C57.3431 10.3939 57.446 10.536 57.544 10.7222L63.0571 21.5867ZM84.6965 24.2183V31.3779H79.7274V9.95772H87.284C88.7933 9.95772 90.0871 10.139 91.1652 10.5017C92.2531 10.8545 93.145 11.3446 93.8409 11.9718C94.5466 12.5991 95.066 13.3391 95.3992 14.1918C95.7325 15.0445 95.8991 15.9658 95.8991 16.9557C95.8991 18.024 95.7276 19.0041 95.3845 19.896C95.0415 20.7879 94.5171 21.5524 93.8115 22.1894C93.1058 22.8265 92.209 23.3264 91.1211 23.689C90.043 24.0418 88.7639 24.2183 87.284 24.2183H84.6965ZM84.6965 20.4694H87.284C88.5777 20.4694 89.5088 20.1606 90.0773 19.5432C90.6457 18.9257 90.93 18.0632 90.93 16.9557C90.93 16.4656 90.8565 16.0197 90.7094 15.6178C90.5624 15.216 90.337 14.873 90.0332 14.5887C89.7391 14.2947 89.3618 14.0693 88.9011 13.9124C88.4503 13.7556 87.9112 13.6772 87.284 13.6772H84.6965V20.4694ZM103.917 31.3779H98.9187V9.95772H103.917V31.3779ZM112.865 23.4538V31.3779H107.896V9.95772H114.864C116.413 9.95772 117.731 10.1194 118.819 10.4429C119.917 10.7565 120.809 11.1976 121.495 11.766C122.191 12.3345 122.695 13.0059 123.009 13.7801C123.323 14.5544 123.479 15.3973 123.479 16.3088C123.479 17.0047 123.386 17.6614 123.2 18.2788C123.014 18.8963 122.735 19.4696 122.362 19.9989C122 20.5184 121.549 20.9839 121.01 21.3956C120.48 21.8072 119.868 22.1453 119.172 22.41C119.505 22.5766 119.814 22.7824 120.098 23.0274C120.392 23.2725 120.647 23.5714 120.863 23.9242L125.42 31.3779H120.921C120.088 31.3779 119.49 31.0643 119.128 30.437L115.57 24.2183C115.413 23.9438 115.227 23.7478 115.011 23.6302C114.806 23.5126 114.512 23.4538 114.129 23.4538H112.865ZM112.865 20.0283H114.864C115.541 20.0283 116.114 19.945 116.584 19.7784C117.065 19.602 117.457 19.3618 117.761 19.058C118.064 18.7542 118.285 18.4013 118.422 17.9995C118.559 17.5878 118.628 17.1468 118.628 16.6763C118.628 15.7354 118.319 15.0004 117.702 14.4711C117.094 13.9418 116.148 13.6772 114.864 13.6772H112.865V20.0283ZM141.24 9.95772V13.7801H132.449V18.7787H139.182V22.4541H132.449V27.5555H141.24V31.3779H127.45V9.95772H141.24ZM150.555 31.3779V10.3106H157.273C158.567 10.3106 159.68 10.438 160.611 10.6928C161.552 10.9476 162.321 11.3103 162.919 11.7807C163.526 12.2512 163.972 12.8294 164.257 13.5155C164.551 14.1918 164.698 14.9563 164.698 15.809C164.698 16.3284 164.614 16.8283 164.448 17.3085C164.291 17.7888 164.046 18.2347 163.713 18.6464C163.389 19.058 162.978 19.4255 162.478 19.749C161.988 20.0724 161.409 20.337 160.743 20.5429C162.282 20.8467 163.443 21.4005 164.227 22.2041C165.011 23.0078 165.403 24.0663 165.403 25.3797C165.403 26.2716 165.237 27.0851 164.904 27.8201C164.58 28.5552 164.1 29.1874 163.463 29.7167C162.835 30.2459 162.061 30.6576 161.14 30.9516C160.228 31.2358 159.185 31.3779 158.008 31.3779H150.555ZM153.407 21.7778V29.1139H157.964C158.778 29.1139 159.474 29.0208 160.052 28.8346C160.64 28.6483 161.12 28.3886 161.493 28.0554C161.875 27.7123 162.154 27.3105 162.331 26.8498C162.507 26.3794 162.595 25.8648 162.595 25.3062C162.595 24.2183 162.208 23.3607 161.434 22.7334C160.669 22.0963 159.508 21.7778 157.95 21.7778H153.407ZM153.407 19.749H157.17C157.974 19.749 158.67 19.6608 159.258 19.4843C159.846 19.3079 160.331 19.0629 160.714 18.7493C161.106 18.4356 161.395 18.0583 161.581 17.6172C161.767 17.1664 161.86 16.6763 161.86 16.1471C161.86 14.9122 161.488 14.0056 160.743 13.4273C159.998 12.849 158.842 12.5599 157.273 12.5599H153.407V19.749ZM177.781 29.1139C178.653 29.1139 179.432 28.9669 180.118 28.6728C180.805 28.3788 181.383 27.9672 181.853 27.4379C182.334 26.9086 182.696 26.2765 182.941 25.5414C183.196 24.8063 183.323 23.9977 183.323 23.1156V10.3106H186.161V23.1156C186.161 24.331 185.965 25.4581 185.573 26.497C185.191 27.5359 184.637 28.4376 183.912 29.2021C183.196 29.9568 182.319 30.5497 181.28 30.981C180.241 31.4122 179.075 31.6279 177.781 31.6279C176.487 31.6279 175.321 31.4122 174.282 30.981C173.243 30.5497 172.361 29.9568 171.636 29.2021C170.91 28.4376 170.352 27.5359 169.96 26.497C169.577 25.4581 169.386 24.331 169.386 23.1156V10.3106H172.224V23.1009C172.224 23.983 172.346 24.7916 172.591 25.5267C172.846 26.2618 173.209 26.8939 173.679 27.4232C174.159 27.9525 174.743 28.369 175.429 28.6728C176.125 28.9669 176.909 29.1139 177.781 29.1139ZM194.202 22.5864V31.3779H191.364V10.3106H197.318C198.651 10.3106 199.803 10.4478 200.773 10.7222C201.744 10.9868 202.542 11.374 203.17 11.8836C203.807 12.3933 204.277 13.0108 204.581 13.736C204.885 14.4515 205.037 15.2552 205.037 16.1471C205.037 16.892 204.919 17.5878 204.684 18.2347C204.449 18.8816 204.106 19.4647 203.655 19.9842C203.214 20.4939 202.67 20.93 202.023 21.2926C201.386 21.6553 200.661 21.9297 199.847 22.1159C200.2 22.3218 200.514 22.6207 200.788 23.0127L206.933 31.3779H204.405C203.885 31.3779 203.503 31.177 203.258 30.7752L197.789 23.248C197.622 23.0127 197.441 22.8461 197.245 22.7481C197.049 22.6403 196.755 22.5864 196.363 22.5864H194.202ZM194.202 20.5135H197.186C198.019 20.5135 198.749 20.4154 199.377 20.2194C200.014 20.0136 200.543 19.7294 200.964 19.3667C201.396 18.9943 201.719 18.5532 201.935 18.0436C202.15 17.5339 202.258 16.9704 202.258 16.3529C202.258 15.0984 201.842 14.1526 201.009 13.5155C200.185 12.8784 198.955 12.5599 197.318 12.5599H194.202V20.5135ZM218.698 29.305C219.266 29.305 219.786 29.2805 220.256 29.2315C220.737 29.1727 221.187 29.0894 221.609 28.9816C222.03 28.8738 222.427 28.7463 222.8 28.5993C223.172 28.4425 223.545 28.2661 223.917 28.0701V23.4244H220.653C220.467 23.4244 220.315 23.3705 220.198 23.2627C220.09 23.1548 220.036 23.0225 220.036 22.8657V21.2485H226.505V29.3344C225.975 29.7167 225.422 30.0499 224.843 30.3341C224.275 30.6183 223.662 30.8585 223.006 31.0545C222.359 31.2407 221.663 31.3779 220.918 31.4661C220.173 31.5641 219.364 31.6132 218.492 31.6132C216.963 31.6132 215.562 31.3534 214.288 30.834C213.013 30.3047 211.916 29.5696 210.994 28.6287C210.073 27.678 209.353 26.5411 208.833 25.218C208.324 23.8948 208.069 22.4394 208.069 20.8516C208.069 19.2442 208.319 17.779 208.819 16.4558C209.328 15.1327 210.049 14.0007 210.98 13.0598C211.921 12.1091 213.053 11.374 214.376 10.8545C215.709 10.3351 217.198 10.0753 218.845 10.0753C219.678 10.0753 220.452 10.139 221.168 10.2665C221.883 10.3841 222.545 10.5605 223.153 10.7957C223.77 11.0211 224.338 11.3005 224.858 11.6337C225.377 11.9571 225.863 12.3247 226.313 12.7363L225.505 14.0301C225.338 14.2947 225.123 14.427 224.858 14.427C224.701 14.427 224.53 14.3731 224.343 14.2653C224.098 14.1281 223.824 13.9615 223.52 13.7654C223.216 13.5694 222.844 13.3832 222.403 13.2068C221.972 13.0206 221.457 12.8637 220.859 12.7363C220.271 12.6089 219.57 12.5452 218.757 12.5452C217.571 12.5452 216.498 12.7412 215.537 13.1333C214.577 13.5155 213.758 14.0693 213.082 14.7945C212.406 15.51 211.886 16.3823 211.524 17.4114C211.161 18.4307 210.98 19.5775 210.98 20.8516C210.98 22.1845 211.166 23.3754 211.538 24.4241C211.921 25.463 212.455 26.3451 213.141 27.0704C213.827 27.7956 214.64 28.3494 215.581 28.7316C216.522 29.1139 217.561 29.305 218.698 29.305ZM243.878 10.3106V12.6334H233.763V19.6314H241.952V21.866H233.763V29.0551H243.878V31.3779H230.897V10.3106H243.878ZM251.113 22.5864V31.3779H248.276V10.3106H254.23C255.563 10.3106 256.714 10.4478 257.685 10.7222C258.655 10.9868 259.454 11.374 260.081 11.8836C260.718 12.3933 261.188 13.0108 261.492 13.736C261.796 14.4515 261.948 15.2552 261.948 16.1471C261.948 16.892 261.83 17.5878 261.595 18.2347C261.36 18.8816 261.017 19.4647 260.566 19.9842C260.125 20.4939 259.581 20.93 258.934 21.2926C258.297 21.6553 257.572 21.9297 256.758 22.1159C257.111 22.3218 257.425 22.6207 257.699 23.0127L263.844 31.3779H261.316C260.796 31.3779 260.414 31.177 260.169 30.7752L254.7 23.248C254.533 23.0127 254.352 22.8461 254.156 22.7481C253.96 22.6403 253.666 22.5864 253.274 22.5864H251.113ZM251.113 20.5135H254.097C254.93 20.5135 255.661 20.4154 256.288 20.2194C256.925 20.0136 257.454 19.7294 257.876 19.3667C258.307 18.9943 258.63 18.5532 258.846 18.0436C259.062 17.5339 259.169 16.9704 259.169 16.3529C259.169 15.0984 258.753 14.1526 257.92 13.5155C257.096 12.8784 255.866 12.5599 254.23 12.5599H251.113V20.5135Z" fill="#F59A1B"/>
<g clip-path="url(#clip0_1010_1307)">
<path d="M26.0479 25.1757V27.389C25.9778 27.6732 25.93 27.9652 25.8353 28.241C25.2428 29.9605 23.7467 31.0144 21.9063 31.0183C17.1114 31.0183 12.3165 31.0183 7.52166 31.0183C7.41073 31.0183 7.30056 31.0183 7.18963 31.0098C5.37383 30.9181 3.76373 29.5391 3.4756 27.7472C3.35696 27.0038 3.39856 26.2342 3.38316 25.4761C3.37083 24.8598 3.69131 24.5516 4.30377 24.5516C8.00161 24.5516 11.6974 24.5516 15.3911 24.5516C15.6578 24.5482 15.9177 24.636 16.1276 24.8005C16.9037 25.3885 17.682 25.973 18.4627 26.5539C18.5613 26.6309 18.6614 26.6995 18.7631 26.7734C19.6537 26.1024 20.525 25.4484 21.3948 24.7912C21.605 24.627 21.8653 24.5399 22.132 24.5447C23.0988 24.5516 24.0657 24.5617 25.031 24.5447C25.5279 24.5308 25.8707 24.7026 26.0479 25.1757Z" fill="#F43127"/>
<path d="M29.5143 4.72543C29.2832 5.60598 29.052 6.48498 28.8286 7.36707C27.9982 10.6797 27.1713 13.9924 26.348 17.305C26.3002 17.4992 26.2247 17.5616 26.0221 17.5616C18.4985 17.5559 10.9745 17.5541 3.44985 17.5562C3.38359 17.5562 3.31657 17.55 3.21873 17.5446C3.06465 16.9445 2.91058 16.3428 2.76189 15.7396C1.86054 12.1383 0.961762 8.53652 0.0655473 4.9342C0.0097831 4.75125 -0.00958399 4.55914 0.00853954 4.36874C0.113312 3.72161 0.859815 3.44428 1.39523 3.85489C2.24266 4.51357 3.08007 5.19305 3.92056 5.86482L7.52056 8.74606C8.0321 9.15514 8.1076 9.40474 7.90036 10.0187C7.75651 10.4263 7.76933 10.8728 7.93634 11.2715C8.10335 11.6701 8.41261 11.9925 8.80402 12.1758C9.18611 12.3553 9.62053 12.3894 10.0259 12.2717C10.4314 12.154 10.78 11.8926 11.0066 11.5364C11.2371 11.1767 11.3268 10.7446 11.2582 10.3228C11.1897 9.90113 10.9678 9.51959 10.6352 9.25144C10.1291 8.83081 10.059 8.5057 10.351 7.92021C11.5322 5.55153 12.715 3.18209 13.8993 0.811872C14.0796 0.44825 14.3254 0.186319 14.7468 0.185549C15.1682 0.184778 15.4193 0.442858 15.6004 0.80725C16.7816 3.17849 17.9642 5.54768 19.148 7.91482C19.4415 8.50262 19.3706 8.83928 18.8714 9.24835C18.5375 9.5157 18.3145 9.8973 18.2455 10.3194C18.1765 10.7416 18.2664 11.1743 18.4978 11.5341C18.7231 11.8911 19.0708 12.1537 19.4758 12.2728C19.8808 12.3919 20.3153 12.3594 20.698 12.1812C21.0856 12.0018 21.3936 11.6859 21.5631 11.2938C21.7326 10.9018 21.7518 10.461 21.6171 10.0557C21.4006 9.38548 21.463 9.17363 22.0023 8.73759C23.9821 7.15214 25.9623 5.56771 27.9427 3.98432C28.6029 3.4566 29.1283 3.57216 29.5143 4.32328V4.72543Z" fill="#F43127"/>
<path d="M3.45898 19.3115H26.0474V19.6058C26.0474 20.3169 26.0474 21.0279 26.0474 21.739C26.0474 22.427 25.7077 22.7652 25.019 22.7652H4.52674C3.78332 22.7652 3.46284 22.4401 3.46207 21.6866C3.46207 20.9948 3.46207 20.3033 3.46207 19.612L3.45898 19.3115Z" fill="#F43127"/>
</g>
<defs>
<clipPath id="clip0_1010_1307">
<rect width="29.5142" height="30.8316" fill="white" transform="translate(0 0.188477)"/>
</clipPath>
</defs>
</svg>
