<svg width="27" height="15" viewBox="0 0 27 15" fill="none" xmlns="http://www.w3.org/2000/svg">
<g clip-path="url(#clip0_1010_1529)">
<path d="M0 8.80569H2.05485L3.1967 3.12601H1.14158L0 8.80569ZM1.2548 2.44859H3.31826L3.65737 0.749258H1.59472L1.2548 2.44859ZM2.85409 10.4039H4.90921L6.16482 4.26759H7.70603L7.93327 3.12601H6.42164L6.47892 2.86919C6.56444 2.38512 6.73575 1.84163 7.50622 1.84163C7.96339 1.84163 8.39124 1.87013 8.8191 2.06994L9.04769 0.871349C8.57086 0.703103 8.06914 0.616196 7.5635 0.614258C5.908 0.614258 4.76668 1.58481 4.33829 3.12601H3.62483L3.39651 4.26759H4.10997L2.85409 10.4039Z" fill="#F59A1B"/>
<path d="M9.36171 8.91985C11.7877 8.91985 13.4717 6.72193 13.4717 4.9239C13.4717 3.58251 12.2443 3.01158 11.0457 3.01158C8.39062 3.01158 6.93574 5.38188 6.93574 7.00753C6.93574 8.34893 8.19162 8.91985 9.36171 8.91985ZM15.8697 8.91985C18.2956 8.91985 19.9796 6.72193 19.9796 4.9239C19.9796 3.58251 18.7238 3.01158 17.5249 3.01158C14.8706 3.01158 13.4152 5.38054 13.4152 7.00753C13.4152 8.34893 14.6996 8.91985 15.8697 8.91985ZM23.3189 8.80556H25.3452L27.0002 0.729492H24.9453L24.4599 3.12695L23.6037 3.04143C21.6058 3.04143 19.7793 5.60993 19.7793 7.43673C19.7793 8.1787 20.2634 8.92093 21.0922 8.92093C22.2623 8.92093 23.09 8.35 23.4318 7.77907H23.5459L23.3189 8.80556ZM16.9822 13.0583C15.3872 14.3799 13.3385 15.0252 11.274 14.8564C8.56246 14.6851 6.62164 12.6014 6.2793 10.4038H6.39332C7.02126 11.7753 8.53396 13.0583 10.3893 13.2579C12.2717 13.4862 14.5277 12.6302 15.7548 11.4598L14.3849 10.4038H18.5234L17.6091 14.7993L17.0096 13.0868L16.9822 13.0583Z" fill="#F59A1B"/>
</g>
<defs>
<clipPath id="clip0_1010_1529">
<rect width="27" height="14.2686" fill="white" transform="translate(0 0.614258)"/>
</clipPath>
</defs>
</svg>
