<svg width="28" height="15" viewBox="0 0 28 15" fill="none" xmlns="http://www.w3.org/2000/svg">
<g clip-path="url(#clip0_1010_1275)">
<path d="M0.5 8.59378H2.55485L3.6967 2.9141H1.64158L0.5 8.59378ZM1.7548 2.23668H3.81826L4.15737 0.537343H2.09472L1.7548 2.23668ZM3.35409 10.192H5.40921L6.66482 4.05568H8.20603L8.43327 2.9141H6.92164L6.97892 2.65727C7.06444 2.17321 7.23575 1.62971 8.00622 1.62971C8.46339 1.62971 8.89124 1.65822 9.3191 1.85803L9.54769 0.659435C9.07086 0.491189 8.56914 0.404282 8.0635 0.402344C6.408 0.402344 5.26668 1.37289 4.83829 2.9141H4.12483L3.89651 4.05568H4.60997L3.35409 10.192Z" fill="#60340B"/>
<path d="M9.86171 8.70794C12.2877 8.70794 13.9717 6.51002 13.9717 4.71199C13.9717 3.3706 12.7443 2.79967 11.5457 2.79967C8.89062 2.79967 7.43574 5.16997 7.43574 6.79562C7.43574 8.13701 8.69162 8.70794 9.86171 8.70794ZM16.3697 8.70794C18.7956 8.70794 20.4796 6.51002 20.4796 4.71199C20.4796 3.3706 19.2238 2.79967 18.0249 2.79967C15.3706 2.79967 13.9152 5.16862 13.9152 6.79562C13.9152 8.13701 15.1996 8.70794 16.3697 8.70794ZM23.8189 8.59364H25.8452L27.5002 0.517578H25.4453L24.9599 2.91504L24.1037 2.82952C22.1058 2.82952 20.2793 5.39802 20.2793 7.22482C20.2793 7.96678 20.7634 8.70901 21.5922 8.70901C22.7623 8.70901 23.59 8.13809 23.9318 7.56716H24.0459L23.8189 8.59364ZM17.4822 12.8464C15.8872 14.168 13.8385 14.8133 11.774 14.6444C9.06246 14.4731 7.12164 12.3895 6.7793 10.1919H6.89332C7.52126 11.5634 9.03396 12.8464 10.8893 13.046C12.7717 13.2743 15.0277 12.4183 16.2548 11.2479L14.8849 10.1919H19.0234L18.1091 14.5874L17.5096 12.8749L17.4822 12.8464Z" fill="#60340B"/>
</g>
<defs>
<clipPath id="clip0_1010_1275">
<rect width="27" height="14.2686" fill="white" transform="translate(0.5 0.402344)"/>
</clipPath>
</defs>
</svg>
