<svg width="19" height="19" viewBox="0 0 19 19" fill="none" xmlns="http://www.w3.org/2000/svg">
<path d="M9.50206 5.13307C6.94756 5.13307 4.88709 7.19354 4.88709 9.74805C4.88709 12.3025 6.94756 14.363 9.50206 14.363C12.0566 14.363 14.117 12.3025 14.117 9.74805C14.117 7.19354 12.0566 5.13307 9.50206 5.13307ZM9.50206 12.7484C7.85128 12.7484 6.50173 11.4029 6.50173 9.74805C6.50173 8.09324 7.84726 6.74771 9.50206 6.74771C11.1569 6.74771 12.5024 8.09324 12.5024 9.74805C12.5024 11.4029 11.1529 12.7484 9.50206 12.7484ZM15.3822 4.9443C15.3822 5.54276 14.9003 6.02072 14.3058 6.02072C13.7074 6.02072 13.2294 5.53874 13.2294 4.9443C13.2294 4.34985 13.7114 3.86787 14.3058 3.86787C14.9003 3.86787 15.3822 4.34985 15.3822 4.9443ZM18.4388 6.03679C18.3705 4.59486 18.0412 3.31761 16.9848 2.26528C15.9325 1.21296 14.6552 0.883604 13.2133 0.811307C11.7272 0.72696 7.2729 0.72696 5.78679 0.811307C4.34888 0.879588 3.07163 1.20894 2.01528 2.26127C0.958942 3.31359 0.633604 4.59084 0.561307 6.03277C0.47696 7.51888 0.47696 11.9732 0.561307 13.4593C0.629588 14.9012 0.958942 16.1785 2.01528 17.2308C3.07163 18.2831 4.34486 18.6125 5.78679 18.6848C7.2729 18.7691 11.7272 18.7691 13.2133 18.6848C14.6552 18.6165 15.9325 18.2872 16.9848 17.2308C18.0372 16.1785 18.3665 14.9012 18.4388 13.4593C18.5232 11.9732 18.5232 7.5229 18.4388 6.03679ZM16.5189 15.0539C16.2056 15.8411 15.5991 16.4476 14.8079 16.7649C13.623 17.2348 10.8114 17.1264 9.50206 17.1264C8.19268 17.1264 5.37711 17.2308 4.19625 16.7649C3.40901 16.4516 2.80252 15.8451 2.48522 15.0539C2.01528 13.869 2.12373 11.0574 2.12373 9.74805C2.12373 8.43866 2.0193 5.62309 2.48522 4.44223C2.7985 3.655 3.405 3.0485 4.19625 2.7312C5.38112 2.26127 8.19268 2.36971 9.50206 2.36971C10.8114 2.36971 13.627 2.26528 14.8079 2.7312C15.5951 3.04449 16.2016 3.65098 16.5189 4.44223C16.9888 5.62711 16.8804 8.43866 16.8804 9.74805C16.8804 11.0574 16.9888 13.873 16.5189 15.0539Z" fill="#F59A1B"/>
</svg>
